<?xml version="1.0" standalone="no"?>
<!DOCTYPE svg PUBLIC "-//W3C//DTD SVG 20010904//EN"
 "http://www.w3.org/TR/2001/REC-SVG-20010904/DTD/svg10.dtd">
<svg version="1.0" xmlns="http://www.w3.org/2000/svg"
 width="1024.000000pt" height="1024.000000pt" viewBox="0 0 1024.000000 1024.000000"
 preserveAspectRatio="xMidYMid meet">
<metadata>
Created by potrace 1.11, written by Peter Selinger 2001-2013
</metadata>
<g transform="translate(0.000000,1024.000000) scale(0.100000,-0.100000)"
fill="#000000" stroke="none">
<path d="M0 5120 l0 -5120 5120 0 5120 0 0 5120 0 5120 -5120 0 -5120 0 0
-5120z m5700 4456 c292 -40 316 -44 480 -87 257 -66 548 -165 755 -256 146
-65 349 -166 411 -205 34 -21 64 -38 68 -38 8 0 144 -88 385 -250 123 -83 476
-394 597 -526 81 -88 103 -113 204 -229 29 -33 57 -59 62 -57 5 1 6 -2 3 -9
-4 -6 4 -23 17 -37 53 -59 278 -388 317 -464 8 -15 19 -25 24 -21 6 3 7 2 4
-4 -3 -5 3 -24 14 -42 102 -169 263 -527 353 -786 44 -127 121 -386 130 -435
3 -14 12 -63 20 -110 21 -112 53 -313 66 -421 8 -56 10 -241 7 -530 -4 -487 2
-420 -81 -894 -19 -108 -81 -325 -140 -490 -23 -66 -50 -140 -58 -165 -81
-227 -290 -639 -425 -836 -47 -68 -80 -117 -103 -153 -31 -48 -104 -145 -142
-189 -16 -18 -26 -38 -22 -43 3 -5 1 -8 -4 -7 -5 2 -66 -61 -135 -139 -125
-140 -315 -331 -372 -374 -16 -13 -64 -53 -105 -89 -41 -36 -90 -76 -108 -89
-18 -12 -29 -27 -26 -33 4 -6 3 -8 -3 -5 -5 3 -25 -7 -44 -22 -42 -35 -275
-192 -329 -222 -21 -12 -36 -27 -33 -32 3 -6 2 -7 -4 -4 -5 3 -26 -5 -46 -18
-20 -14 -40 -25 -44 -25 -5 0 -25 -11 -45 -25 -20 -13 -76 -45 -125 -71 -48
-25 -102 -57 -120 -70 -17 -13 -40 -24 -51 -24 -24 0 -111 -30 -182 -63 -89
-41 -250 -108 -268 -112 -9 -2 -78 -22 -152 -44 -74 -23 -153 -44 -175 -47
-22 -4 -111 -24 -197 -45 -86 -22 -188 -43 -225 -49 -37 -5 -93 -14 -123 -20
-201 -38 -908 -38 -1190 1 -41 5 -108 14 -148 19 -112 15 -420 87 -582 137
-345 106 -719 274 -1030 463 -170 103 -428 282 -511 354 -20 17 -66 56 -104
86 -37 30 -77 64 -89 75 -11 12 -57 54 -101 95 -83 78 -223 229 -314 340 -30
36 -58 64 -63 62 -5 -1 -7 2 -4 7 4 5 -6 25 -22 43 -47 55 -211 294 -241 351
-8 14 -19 24 -24 20 -6 -3 -7 -1 -3 6 5 7 -3 26 -18 46 -14 18 -26 38 -26 42
0 5 -13 30 -30 56 -64 101 -138 247 -205 402 -26 61 -61 142 -78 180 -28 65
-117 310 -137 380 -86 291 -131 536 -171 920 -15 143 -15 547 0 700 28 294 74
580 122 760 109 412 308 904 466 1152 18 29 33 55 33 58 0 3 18 33 40 65 22
32 40 61 40 63 0 4 98 152 133 200 13 18 41 56 63 85 21 30 38 58 37 63 -2 5
1 8 6 6 5 -1 40 35 78 79 147 177 360 396 478 494 17 13 59 49 95 80 101 86
160 133 220 176 79 59 250 174 256 174 3 0 32 18 64 40 32 22 62 40 66 40 4 0
39 19 78 43 112 68 366 189 561 267 116 46 400 141 465 155 30 7 107 26 170
43 119 32 153 38 405 73 240 32 351 38 685 34 264 -4 345 -9 500 -29z"/>
<path d="M4695 9344 c-186 -17 -275 -29 -370 -49 -60 -13 -126 -26 -145 -29
-51 -9 -302 -83 -400 -118 -47 -17 -115 -41 -151 -54 -37 -12 -93 -36 -125
-52 -33 -16 -70 -33 -84 -37 -38 -12 -268 -123 -330 -160 -30 -18 -77 -45
-104 -61 -27 -16 -61 -36 -75 -44 -14 -8 -73 -47 -129 -85 -57 -39 -120 -81
-141 -95 -119 -81 -468 -383 -463 -401 1 -6 -1 -8 -6 -5 -12 7 -84 -68 -75
-78 5 -4 3 -6 -4 -4 -13 3 -210 -212 -307 -336 -57 -73 -126 -169 -163 -226
-9 -14 -33 -50 -53 -80 -21 -30 -47 -71 -58 -90 -11 -19 -41 -71 -66 -115
l-46 -80 22 -16 c12 -10 39 -22 60 -28 21 -7 38 -18 38 -26 0 -8 5 -15 12 -15
29 0 277 -137 368 -204 57 -42 227 -185 315 -265 28 -25 75 -66 105 -91 29
-25 88 -75 129 -112 41 -37 78 -65 82 -62 4 2 11 -1 15 -7 5 -8 2 -10 -7 -5
-17 9 29 -33 98 -89 26 -21 69 -59 95 -82 26 -24 57 -43 69 -43 15 0 44 23 86
68 34 37 63 70 63 74 0 4 23 34 50 67 28 34 49 61 46 61 -3 0 27 30 67 68 111
105 254 221 373 302 67 46 176 134 225 181 l56 54 11 90 c6 50 14 135 17 190
9 153 24 243 54 320 43 112 165 259 308 372 l41 33 43 -58 c101 -132 249 -350
249 -365 0 -18 135 -285 162 -321 76 -100 211 -181 353 -210 39 -8 117 -19
175 -25 141 -15 393 -78 512 -129 54 -23 100 -42 103 -42 11 0 405 -196 477
-238 48 -27 95 -64 121 -96 38 -44 177 -265 177 -280 0 -11 119 -216 145 -250
14 -18 25 -36 25 -41 0 -17 104 -147 156 -194 63 -58 125 -84 251 -105 107
-19 389 -43 653 -56 107 -6 272 -17 365 -25 94 -8 257 -22 363 -30 198 -15
238 -24 228 -52 -5 -13 -4 -13 8 -4 8 7 56 13 117 14 l104 2 12 -110 c16 -158
16 -324 -2 -390 -8 -31 -33 -104 -56 -163 -62 -159 -115 -300 -138 -364 -23
-65 -100 -221 -139 -282 -14 -23 -30 -50 -36 -61 -6 -11 -38 -58 -71 -104 -33
-46 -59 -88 -58 -92 2 -5 0 -8 -5 -7 -4 1 -47 -39 -97 -88 -101 -100 -235
-194 -340 -237 -105 -43 -244 -87 -274 -87 -14 0 -57 -7 -96 -15 -127 -26
-418 -64 -572 -75 -284 -19 -526 -50 -642 -84 -98 -29 -193 -89 -301 -192 -41
-39 -109 -95 -151 -125 -42 -30 -161 -131 -265 -225 -188 -171 -215 -194 -349
-297 -115 -89 -142 -99 -285 -109 -93 -6 -158 -17 -255 -43 -242 -66 -360 -95
-386 -95 -15 0 -80 -11 -145 -24 -66 -13 -191 -36 -279 -50 -88 -15 -254 -44
-370 -66 -115 -21 -228 -42 -250 -45 -22 -3 -123 -23 -225 -45 -102 -21 -205
-41 -229 -45 -24 -3 -121 -23 -215 -45 -94 -21 -197 -44 -229 -51 -31 -7 -57
-15 -57 -18 1 -13 275 -211 370 -267 19 -12 73 -45 120 -74 73 -45 138 -81
275 -154 43 -22 226 -103 271 -119 22 -8 80 -30 129 -49 272 -107 629 -197
930 -235 179 -23 952 -26 1075 -5 41 7 109 17 150 22 244 31 779 194 1040 317
41 19 91 41 110 48 37 13 267 130 285 145 5 4 33 20 60 36 72 40 256 162 362
240 68 50 131 103 236 199 55 50 112 100 128 113 16 13 26 28 23 34 -4 6 -2 8
4 4 10 -6 251 240 334 342 24 30 60 75 81 100 35 44 58 76 142 197 19 28 43
61 53 75 87 113 246 410 349 650 92 215 212 572 243 725 5 28 21 102 34 165
46 222 51 295 50 805 0 391 -3 499 -16 585 -26 163 -57 314 -96 450 -19 69
-39 143 -44 165 -28 110 -197 539 -254 644 -13 24 -24 48 -24 53 0 28 -192
343 -337 553 -92 134 -386 471 -509 584 -159 146 -360 316 -452 379 -150 104
-276 185 -436 278 -86 50 -507 244 -530 244 -7 0 -51 16 -98 35 -48 19 -117
43 -155 53 -37 11 -124 35 -193 54 -109 31 -234 58 -465 99 -56 10 -938 21
-1030 13z"/>
<path d="M1252 6843 c-5 -21 -28 -83 -50 -138 -64 -157 -112 -293 -132 -370
-10 -38 -32 -117 -48 -175 -17 -58 -34 -125 -37 -150 -4 -25 -16 -88 -26 -140
-11 -52 -24 -122 -28 -155 l-7 -61 216 23 c118 12 252 24 297 25 46 2 83 4 83
4 0 1 -23 49 -51 108 -61 129 -80 211 -109 493 -12 114 -32 253 -45 308 -13
55 -29 137 -35 183 -7 45 -13 82 -15 82 -1 0 -7 -17 -13 -37z"/>
</g>
</svg>
